<svg width="35" height="35" viewBox="0 0 35 35" fill="none" xmlns="http://www.w3.org/2000/svg">
<g clip-path="url(#clip0)">
<path d="M34.9651 13.6769C34.9651 19.6469 35.005 25.3587 34.9451 31.0756C34.9201 33.5011 33.3169 34.9493 30.8997 34.9645C30.4852 34.9696 30.0707 34.9645 29.6561 34.9645C23.9327 34.9645 23.9027 34.9746 22.2346 29.3742C21.4255 26.655 20.6165 23.9257 20.0371 21.1508C19.4977 18.5886 21.1209 17.3632 23.2984 16.7505C25.2262 16.2036 27.174 15.7327 29.1118 15.2264C30.9596 14.7402 32.8175 14.2491 34.9651 13.6769Z" fill="#192C49"/>
<path d="M17.7233 34.964C12.5942 34.964 7.8746 35.0602 3.15999 34.9184C1.13231 34.8577 0.213356 33.1664 0.0934931 31.3435C-0.0863014 28.5838 0.0485445 25.8089 0.0485445 23.0442C3.19495 22.1428 6.19652 21.2466 9.21806 20.4262C11.2308 19.8794 13.638 21.2567 14.3772 23.5606C15.5458 27.1964 16.5347 30.8928 17.7233 34.964Z" fill="#3BA935"/>
<path d="M34.9651 7.41824C30.4702 8.65377 26.1502 9.85386 21.8201 11.0236C18.7636 11.8489 16.8508 10.7906 15.812 7.69167C14.9879 5.24086 14.2438 2.76473 13.3748 0.0354224C19.7225 0.0354224 25.8355 -0.0709144 31.9385 0.0961863C33.8863 0.146823 34.7453 1.87353 34.9401 3.72177C35.065 4.88134 34.9651 6.06624 34.9651 7.41824Z" fill="#192C49"/>
<path d="M0.0449498 16.7603C0.0449498 12.2739 -0.0149817 7.97995 0.0699212 3.69103C0.109876 1.53898 1.76299 0.0603901 3.8506 0.0350719C4.92937 0.0198809 6.00814 0.0350719 7.22175 0.0350719C8.24058 3.40747 9.2794 6.79505 10.2733 10.1928C10.8376 12.1271 9.75885 13.9905 7.56136 14.6842C5.19906 15.4286 2.78182 16.0109 0.0449498 16.7603Z" fill="#192C49"/>
</g>
<defs>
<clipPath id="clip0">
<rect width="35" height="35" fill="white"/>
</clipPath>
</defs>
</svg>
